<?xml version="1.0" encoding="utf-8"?>
<!DOCTYPE svg PUBLIC "-//W3C//DTD SVG 20010904//EN" "http://www.w3.org/TR/2001/REC-SVG-20010904/DTD/svg10.dtd">
<svg height="1024.000000pt" preserveAspectRatio="xMidYMid meet" version="1.0" viewBox="0 0 1024.000000 1024.000000" width="1024.000000pt" xmlns="http://www.w3.org/2000/svg">
<g fill="#000000" stroke="none" transform="translate(0.000000,1024.000000) scale(0.100000,-0.100000)">
<path d="M0 5120 l0 -5120 5120 0 5120 0 0 5120 0 5120 -5120 0 -5120 0 0 -5120z m4811 2411 l24 -19 3 -366 3 -366 337 0 c333 1 337 1 355 -21 16 -20 17 -66 17 -660 l0 -639 155 0 155 0 0 244 c0 240 0 245 23 270 40 45 401 336 425 342 13 4 33 2 45 -4 32 -15 388 -313 415 -346 l22 -29 -1 -881 c-1 -484 -5 -855 -9 -823 -6 50 -20 91 -20 60 0 -6 -11 -14 -25 -17 -14 -4 -25 -11 -25 -17 0 -6 -13 -23 -30 -38 -25 -22 -31 -37 -39 -96 -5 -45 -9 260 -10 840 l-1 910 -149 128 c-82 70 -153 127 -157 127 -9 0 -64 -45 -206 -168 l-98 -84 -1 -1067 c0 -586 -4 -1084 -8 -1106 -5 -22 -9 -31 -10 -20 -1 18 -3 17 -17 -5 -10 -14 -22 -30 -28 -35 -6 -6 -16 -19 -22 -30 -5 -11 -29 -30 -52 -41 -23 -12 -38 -24 -35 -28 4 -3 -3 -6 -14 -6 -11 0 -23 -3 -27 -7 -3 -4 -14 -8 -24 -9 -9 -2 -18 -8 -20 -13 -2 -6 -10 -11 -17 -11 -7 0 -15 -7 -19 -15 -3 -8 -14 -15 -25 -15 -11 0 -23 -5 -26 -10 -4 -6 -10 -8 -14 -5 -5 2 -16 -2 -27 -9 -10 -8 -25 -11 -33 -8 -8 3 -12 1 -8 -5 8 -13 -14 -23 -49 -23 -14 0 -22 -4 -19 -10 3 -6 -1 -7 -9 -4 -9 4 -16 1 -16 -6 0 -7 -7 -10 -15 -7 -8 4 -17 2 -21 -4 -3 -6 -12 -8 -20 -5 -8 3 -14 1 -14 -4 0 -6 6 -10 13 -10 8 0 7 -3 -3 -10 -9 -5 -17 -5 -20 0 -6 10 -30 8 -62 -5 -13 -5 -18 -2 -18 11 0 16 -2 17 -10 4 -5 -8 -10 -11 -10 -6 0 5 -6 3 -14 -3 -10 -9 -16 -9 -21 -1 -5 8 -11 8 -20 0 -10 -8 -19 -8 -34 0 -16 8 -21 8 -21 -2 0 -9 -3 -9 -10 2 -9 14 -14 7 -11 -13 1 -5 -3 -6 -9 -2 -6 3 -8 10 -5 15 3 5 -2 16 -11 25 -13 13 -19 14 -25 4 -6 -11 -9 -10 -14 3 -4 10 -15 20 -26 23 -10 4 -19 11 -19 16 0 6 6 7 13 3 6 -3 0 5 -15 18 -30 27 -35 47 -17 65 8 8 5 17 -10 32 -19 19 -19 25 0 23 3 0 11 8 18 20 10 16 10 19 -1 12 -10 -6 -11 -5 -1 8 7 8 10 18 5 22 -4 4 1 12 10 17 10 5 15 16 12 24 -4 8 -1 15 5 15 6 0 10 3 8 8 -1 4 8 18 21 32 20 22 27 40 23 63 -1 5 3 5 9 2 7 -4 14 2 17 13 3 14 10 19 21 15 10 -4 13 -2 8 5 -4 7 -2 12 6 12 10 0 10 2 1 8 -9 6 -7 11 7 20 11 7 20 8 20 2 0 -5 7 -7 16 -3 8 3 13 12 10 20 -3 8 -1 11 4 8 6 -3 10 -1 10 6 0 7 3 9 6 6 4 -4 17 5 30 20 36 42 54 39 55 -10 2 -40 2 -39 9 13 5 30 8 650 9 1378 l1 1322 -445 0 -445 0 -1 -1397 c-1 -769 -2 -1402 -4 -1408 -1 -5 -3 -53 -5 -105 -2 -52 -5 -81 -7 -65 -6 52 -13 75 -22 75 -12 0 -86 73 -83 83 1 4 -5 7 -13 7 -8 0 -16 -8 -17 -17 -2 -10 -5 399 -8 910 l-5 928 -368 0 -368 0 0 -678 c-1 -373 -4 -734 -8 -803 -6 -89 -8 -105 -9 -57 -1 42 -6 66 -12 62 -5 -3 -20 5 -32 18 -13 13 -32 27 -44 31 -12 3 -26 16 -32 29 -9 19 -11 13 -13 -38 -1 -49 -3 -54 -9 -30 -4 17 -8 377 -9 802 l-1 772 24 28 24 28 431 3 431 3 0 473 c0 443 1 474 18 489 15 13 47 17 172 19 l155 3 3 359 c2 353 3 360 24 383 26 28 67 30 99 4z m159 -1341 c-25 -4 -36 -8 -26 -8 18 -2 18 -4 -5 -29 -13 -14 -18 -23 -10 -18 11 6 12 5 5 -6 -5 -8 -9 -21 -10 -29 -1 -8 -2 -25 -3 -37 0 -12 -8 -29 -17 -37 -8 -9 -11 -16 -5 -16 7 0 7 -8 1 -25 -9 -24 -8 -24 53 -28 l62 -3 -72 -2 -73 -2 0 125 0 125 73 -2 c66 -1 68 -2 27 -8z m47 -52 c-3 -7 -5 -2 -5 12 0 14 2 19 5 13 2 -7 2 -19 0 -25z m-2309 -354 c54 -37 45 -93 -22 -138 -128 -86 -249 -400 -300 -781 -8 -60 -22 -199 -31 -308 -24 -294 -57 -398 -141 -433 -74 -31 -151 -9 -199 56 -28 38 -72 165 -80 233 -3 23 5 1 19 -49 35 -134 87 -227 116 -209 13 8 13 52 0 60 -7 4 -7 13 0 26 7 13 7 19 0 19 -5 0 -10 7 -10 15 0 20 10 19 27 -2 12 -16 12 -15 2 9 -7 15 -16 25 -22 21 -6 -3 -7 -1 -4 5 4 5 -2 48 -13 94 -10 45 -26 137 -35 203 -30 235 -54 335 -96 398 l-21 32 26 -30 c40 -47 63 -131 96 -354 32 -215 58 -324 92 -378 57 -94 96 15 118 327 21 312 65 555 142 790 65 200 165 349 263 395 39 18 46 18 73 -1z m4877 2 c46 -20 117 -87 161 -153 70 -106 141 -313 188 -553 31 -158 42 -255 61 -505 15 -195 31 -291 55 -321 50 -59 102 77 140 366 21 160 51 297 70 328 10 15 11 15 5 -3 -39 -122 -73 -373 -56 -414 11 -24 10 -25 -4 -7 -15 19 -15 19 -15 -2 0 -12 5 -22 10 -22 14 0 12 -74 -2 -88 -8 -8 -8 -12 -1 -12 19 0 22 -39 5 -50 -10 -5 -12 -10 -7 -10 11 0 12 -71 1 -88 -3 -5 1 -12 8 -15 20 -8 42 57 71 208 13 66 24 109 24 95 1 -44 -45 -253 -68 -306 -12 -28 -38 -66 -56 -84 -28 -27 -44 -34 -88 -38 -78 -6 -127 21 -161 90 -33 68 -42 121 -61 353 -30 378 -69 597 -143 795 -58 157 -108 237 -184 296 -53 40 -65 64 -54 108 5 20 35 43 59 45 4 1 23 -5 42 -13z m-2575 -361 l0 -125 -70 0 -70 0 0 125 0 125 70 0 70 0 0 -125z m-1977 -173 c27 -24 21 -64 -14 -98 -63 -59 -123 -198 -162 -374 -17 -79 -21 -129 -21 -300 -1 -298 28 -466 109 -635 104 -218 260 -366 485 -461 134 -56 286 -88 541 -114 124 -12 340 -65 477 -116 227 -85 385 -186 550 -352 61 -62 112 -109 112 -103 0 5 42 54 94 108 197 207 418 327 764 414 84 21 201 43 260 49 166 17 320 40 404 60 399 98 670 390 733 791 67 431 9 837 -146 1014 -55 63 -60 85 -24 120 30 31 53 31 96 2 112 -76 223 -404 236 -702 7 -161 -24 -459 -63 -592 -77 -272 -250 -497 -481 -629 -181 -103 -321 -145 -605 -179 -314 -38 -531 -97 -733 -198 -164 -82 -320 -209 -426 -345 -105 -135 -119 -136 -223 -13 -100 118 -181 190 -298 268 -246 163 -568 263 -953 299 -187 17 -447 117 -601 232 -230 170 -368 414 -419 737 -23 142 -30 426 -16 554 24 203 113 448 197 541 46 51 85 58 127 22z m1915 -369 l-67 -4 -4 -87 -3 -87 -2 93 -2 92 73 -2 72 -2 -67 -3z m-3061 -115 c-3 -8 -6 -5 -6 6 -1 11 2 17 5 13 3 -3 4 -12 1 -19z m10 -60 c-3 -7 -5 -2 -5 12 0 14 2 19 5 13 2 -7 2 -19 0 -25z m6420 -50 c-3 -7 -5 -2 -5 12 0 14 2 19 5 13 2 -7 2 -19 0 -25z m-6410 -25 c-3 -10 -5 -2 -5 17 0 19 2 27 5 18 2 -10 2 -26 0 -35z m6400 -45 c-3 -7 -5 -2 -5 12 0 14 2 19 5 13 2 -7 2 -19 0 -25z m-6390 -35 c-3 -10 -5 -2 -5 17 0 19 2 27 5 18 2 -10 2 -26 0 -35z m10 -80 c-3 -10 -5 -2 -5 17 0 19 2 27 5 18 2 -10 2 -26 0 -35z m3111 -1009 c0 -17 -3 -22 -8 -13 -5 6 -6 18 -3 26 8 19 11 16 11 -13z"/>
<path d="M2090 4136 c0 -2 7 -7 16 -10 8 -3 12 -2 9 4 -6 10 -25 14 -25 6z"/>
<path d="M8190 4208 c0 -19 2 -20 10 -8 13 19 13 30 0 30 -5 0 -10 -10 -10 -22z"/>
<path d="M4950 5530 c12 -8 11 -10 -7 -10 -22 0 -48 -32 -36 -44 3 -3 1 -6 -4 -6 -6 0 -14 6 -16 13 -4 7 -6 6 -6 -5 -1 -9 5 -19 12 -21 10 -4 10 -6 0 -6 -9 -1 -13 -22 -13 -71 l0 -70 60 0 60 0 0 115 0 115 -32 0 c-25 0 -29 -3 -18 -10z"/>
</g>
</svg>